<?xml version="1.0" encoding="UTF-8" standalone="no"?>
<!-- Created with Inkscape (http://www.inkscape.org/) -->

<svg
   xmlns:dc="http://purl.org/dc/elements/1.1/"
   xmlns:cc="http://creativecommons.org/ns#"
   xmlns:rdf="http://www.w3.org/1999/02/22-rdf-syntax-ns#"
   xmlns:svg="http://www.w3.org/2000/svg"
   xmlns="http://www.w3.org/2000/svg"
   xmlns:sodipodi="http://sodipodi.sourceforge.net/DTD/sodipodi-0.dtd"
   xmlns:inkscape="http://www.inkscape.org/namespaces/inkscape"
   version="1.1"
   id="svg2"
   width="131.02007"
   height="44.029202"
   viewBox="0 0 131.02007 44.029202"
   sodipodi:docname="msm-logo.svg"
   inkscape:version="0.92.3 (2405546, 2018-03-11)">
  <metadata
     id="metadata8">
    <rdf:RDF>
      <cc:Work
         rdf:about="">
        <dc:format>image/svg+xml</dc:format>
        <dc:type
           rdf:resource="http://purl.org/dc/dcmitype/StillImage" />
        <dc:title></dc:title>
      </cc:Work>
    </rdf:RDF>
  </metadata>
  <defs
     id="defs6" />
  <sodipodi:namedview
     pagecolor="#ffffff"
     bordercolor="#666666"
     borderopacity="1"
     objecttolerance="10"
     gridtolerance="10"
     guidetolerance="10"
     inkscape:pageopacity="0"
     inkscape:pageshadow="2"
     inkscape:window-width="1920"
     inkscape:window-height="1052"
     id="namedview4"
     showgrid="false"
     fit-margin-top="0"
     fit-margin-left="0"
     fit-margin-right="0"
     fit-margin-bottom="0"
     inkscape:zoom="7.28"
     inkscape:cx="25.203703"
     inkscape:cy="32.593003"
     inkscape:window-x="0"
     inkscape:window-y="0"
     inkscape:window-maximized="1"
     inkscape:current-layer="svg2" />
  <text
     xml:space="preserve"
     style="font-style:normal;font-variant:normal;font-weight:normal;font-stretch:normal;font-size:59.48006821px;line-height:1.25;font-family:'Abyssinica SIL';-inkscape-font-specification:'Abyssinica SIL';letter-spacing:0px;word-spacing:0px;fill:#ffffff;fill-opacity:1;stroke:none;stroke-width:1.48700166"
     x="-1.1907631"
     y="43.184666"
     id="text823"><tspan
       sodipodi:role="line"
       id="tspan821"
       x="-1.1907631"
       y="43.184666"
       style="font-style:normal;font-variant:normal;font-weight:normal;font-stretch:normal;font-family:'Abyssinica SIL';-inkscape-font-specification:'Abyssinica SIL';fill:#ffffff;stroke-width:1.48700166">m</tspan></text>
  <path
     d="m 64.922529,44.0292 c -4.928555,0 -9.690059,-1.13363 -13.542758,-3.11725 l 1.472998,-9.80248 c 3.85375,1.92583 7.819918,3.05947 11.957342,3.05947 3.795966,0 5.268961,-1.13364 5.268961,-3.22967 0,-5.21328 -18.642566,-3.00273 -18.642566,-17.33977 C 51.436506,6.11999 56.252642,0 67.642636,0 c 4.249839,0 8.896828,0.79429 12.353431,2.15382 l -1.360575,9.57554 c -3.682501,-1.07691 -7.309307,-1.64321 -10.313088,-1.64321 -4.590251,0 -5.496954,1.24712 -5.496954,2.89032 0,5.27001 18.58583,2.88926 18.58583,17.22631 0,8.49967 -6.23135,13.82642 -16.488751,13.82642"
     style="fill:#ffffff;fill-opacity:1;fill-rule:nonzero;stroke:none;stroke-width:1.05064058"
     id="path1474"
     inkscape:connector-curvature="0" />
  <path
     d="m 97.81457,0.73745 8.444,21.70203 1.58646,4.30658 h 0.17021 l 1.52868,-4.24984 8.55747,-21.75877 h 12.91868 V 43.23482 H 120.19742 V 25.32875 l 0.11347,-4.5892 -0.17021,-0.0567 -1.58646,4.36331 -6.96995,18.18869 h -7.76214 l -6.971,-18.30217 -1.52973,-4.36331 -0.11242,0.0578 0.0557,4.5892 V 43.23489 H 84.838128 V 0.73752 Z"
     style="fill:#ffffff;fill-opacity:1;fill-rule:nonzero;stroke:none;stroke-width:1.05064058"
     id="path1478"
     inkscape:connector-curvature="0" />
</svg>
