<?xml version="1.0" encoding="UTF-8" standalone="no"?>
<!-- Created with Inkscape (http://www.inkscape.org/) -->

<svg
   xmlns:dc="http://purl.org/dc/elements/1.1/"
   xmlns:cc="http://creativecommons.org/ns#"
   xmlns:rdf="http://www.w3.org/1999/02/22-rdf-syntax-ns#"
   xmlns:svg="http://www.w3.org/2000/svg"
   xmlns="http://www.w3.org/2000/svg"
   xmlns:sodipodi="http://sodipodi.sourceforge.net/DTD/sodipodi-0.dtd"
   xmlns:inkscape="http://www.inkscape.org/namespaces/inkscape"
   width="192.32674mm"
   height="50.347515mm"
   viewBox="0 0 192.32674 50.347515"
   version="1.1"
   id="svg2555"
   inkscape:version="0.92.3 (2405546, 2018-03-11)"
   sodipodi:docname="pp-sm-logo-white.svg">
  <defs
     id="defs2549">
    <clipPath
       clipPathUnits="userSpaceOnUse"
       id="clipPath654">
      <path
         d="M 0,945 H 1920 V 0 H 0 Z"
         id="path652"
         inkscape:connector-curvature="0" />
    </clipPath>
  </defs>
  <sodipodi:namedview
     id="base"
     pagecolor="#ffffff"
     bordercolor="#666666"
     borderopacity="1.0"
     inkscape:pageopacity="0.0"
     inkscape:pageshadow="2"
     inkscape:zoom="0.35"
     inkscape:cx="-129.40505"
     inkscape:cy="-339.76891"
     inkscape:document-units="mm"
     inkscape:current-layer="layer1"
     showgrid="false"
     fit-margin-top="0"
     fit-margin-left="0"
     fit-margin-right="0"
     fit-margin-bottom="0"
     inkscape:window-width="1366"
     inkscape:window-height="740"
     inkscape:window-x="1920"
     inkscape:window-y="452"
     inkscape:window-maximized="1" />
  <metadata
     id="metadata2552">
    <rdf:RDF>
      <cc:Work
         rdf:about="">
        <dc:format>image/svg+xml</dc:format>
        <dc:type
           rdf:resource="http://purl.org/dc/dcmitype/StillImage" />
        <dc:title></dc:title>
      </cc:Work>
    </rdf:RDF>
  </metadata>
  <g
     inkscape:label="Layer 1"
     inkscape:groupmode="layer"
     id="layer1"
     transform="translate(-8.1580616,-8.5886267)">
    <g
       clip-path="url(#clipPath654)"
       id="g650"
       transform="matrix(0.54588495,0,0,-0.54588495,-419.4893,424.34716)">
      <g
         transform="translate(990.2718,744.7764)"
         id="g656">
        <path
           inkscape:connector-curvature="0"
           id="path658"
           style="fill:#ffffff;fill-opacity:1;fill-rule:nonzero;stroke:none"
           d="M 0,0 H -3.904 V -7.471 H 0 c 2.641,0 3.995,0.904 3.995,3.77 C 3.995,-0.993 2.708,0 0,0 m 0,-8.757 h -3.904 v -6.839 H -5.395 V 1.331 H 0 c 3.837,0 5.507,-1.489 5.507,-5.032 0,-3.408 -1.625,-5.056 -5.507,-5.056" />
      </g>
      <g
         transform="translate(1004.1321,744.7764)"
         id="g660">
        <path
           inkscape:connector-curvature="0"
           id="path662"
           style="fill:#ffffff;fill-opacity:1;fill-rule:nonzero;stroke:none"
           d="m 0,0 h -3.995 v -6.771 h 3.859 c 2.461,0 3.567,0.994 3.567,3.454 C 3.431,-0.948 2.37,0 0,0 m 1.354,-7.719 4.717,-7.877 H 4.266 l -4.333,7.607 h -3.928 v -7.607 H -5.484 V 1.331 H 0 c 3.407,0 4.965,-1.489 4.965,-4.581 0,-2.754 -1.264,-4.198 -3.611,-4.469" />
      </g>
      <g
         transform="translate(1023.2708,730.5801)"
         id="g664">
        <path
           inkscape:connector-curvature="0"
           id="path666"
           style="fill:#ffffff;fill-opacity:1;fill-rule:nonzero;stroke:none"
           d="m 0,0 -0.068,-1.399 h -10.381 v 16.926 h 9.975 l 0.068,-1.398 H -8.982 V 8.103 h 7.424 V 6.839 H -8.982 V 0 Z" />
      </g>
      <g
         transform="translate(1030.2211,728.8652)"
         id="g668">
        <path
           inkscape:connector-curvature="0"
           id="path670"
           style="fill:#ffffff;fill-opacity:1;fill-rule:nonzero;stroke:none"
           d="m 0,0 c -1.941,0 -3.521,0.519 -4.808,1.309 l 0.271,1.399 C -3.228,1.851 -1.783,1.399 0,1.399 c 2.686,0 4.062,1.309 4.062,3.498 0,4.537 -8.689,2.55 -8.689,8.125 0,2.55 1.625,4.492 5.259,4.492 1.647,0 3.137,-0.339 4.333,-0.903 L 4.694,15.279 c -1.286,0.541 -2.528,0.858 -3.995,0.858 -2.798,0 -3.904,-1.422 -3.904,-3.025 0,-4.31 8.712,-2.279 8.712,-8.125 C 5.507,1.896 3.61,0 0,0" />
      </g>
      <g
         transform="translate(1050.8265,735.2969)"
         id="g672">
        <path
           inkscape:connector-curvature="0"
           id="path674"
           style="fill:#ffffff;fill-opacity:1;fill-rule:nonzero;stroke:none"
           d="m 0,0 c 0,-4.536 -2.302,-6.432 -6.229,-6.432 -3.95,0 -6.252,1.896 -6.252,6.432 v 10.811 h 1.49 V 0 c 0,-3.475 1.58,-4.987 4.762,-4.987 3.159,0 4.74,1.557 4.74,4.987 V 10.811 H 0 Z" />
      </g>
      <g
         transform="translate(1059.9271,744.7764)"
         id="g676">
        <path
           inkscape:connector-curvature="0"
           id="path678"
           style="fill:#ffffff;fill-opacity:1;fill-rule:nonzero;stroke:none"
           d="M 0,0 H -3.904 V -7.471 H 0 c 2.641,0 3.995,0.904 3.995,3.77 C 3.995,-0.993 2.708,0 0,0 m 0,-8.757 h -3.904 v -6.839 H -5.395 V 1.331 H 0 c 3.837,0 5.507,-1.489 5.507,-5.032 0,-3.408 -1.625,-5.056 -5.507,-5.056" />
      </g>
      <g
         transform="translate(1080.599,735.2969)"
         id="g680">
        <path
           inkscape:connector-curvature="0"
           id="path682"
           style="fill:#ffffff;fill-opacity:1;fill-rule:nonzero;stroke:none"
           d="m 0,0 c 0,-4.536 -2.303,-6.432 -6.23,-6.432 -3.95,0 -6.251,1.896 -6.251,6.432 v 10.811 h 1.49 V 0 c 0,-3.475 1.579,-4.987 4.761,-4.987 3.16,0 4.74,1.557 4.74,4.987 V 10.811 H 0 Z" />
      </g>
      <g
         transform="translate(1094.7543,730.5801)"
         id="g684">
        <path
           inkscape:connector-curvature="0"
           id="path686"
           style="fill:#ffffff;fill-opacity:1;fill-rule:nonzero;stroke:none"
           d="m 0,0 -0.067,-1.399 h -10.382 v 16.926 h 9.975 l 0.068,-1.398 H -8.982 V 8.103 h 7.424 V 6.839 H -8.982 V 0 Z" />
      </g>
      <g
         transform="translate(1101.8441,728.8652)"
         id="g688">
        <path
           inkscape:connector-curvature="0"
           id="path690"
           style="fill:#ffffff;fill-opacity:1;fill-rule:nonzero;stroke:none"
           d="m 0,0 c -1.941,0 -3.521,0.519 -4.808,1.309 l 0.271,1.399 C -3.228,1.851 -1.783,1.399 0,1.399 c 2.686,0 4.062,1.309 4.062,3.498 0,4.537 -8.689,2.55 -8.689,8.125 0,2.55 1.625,4.492 5.259,4.492 1.647,0 3.137,-0.339 4.333,-0.903 L 4.694,15.279 c -1.286,0.541 -2.528,0.858 -3.995,0.858 -2.799,0 -3.904,-1.422 -3.904,-3.025 0,-4.31 8.712,-2.279 8.712,-8.125 C 5.507,1.896 3.61,0 0,0" />
      </g>
      <g
         transform="translate(1115.6771,744.6631)"
         id="g692">
        <path
           inkscape:connector-curvature="0"
           id="path694"
           style="fill:#ffffff;fill-opacity:1;fill-rule:nonzero;stroke:none"
           d="M 0,0 V -15.482 H -1.49 V 0 h -5.304 l 0.046,1.444 H 5.303 L 5.326,0 Z" />
      </g>
      <g
         transform="translate(1128.975,744.957)"
         id="g696">
        <path
           inkscape:connector-curvature="0"
           id="path698"
           style="fill:#ffffff;fill-opacity:1;fill-rule:nonzero;stroke:none"
           d="m 0,0 c -3.724,0 -5.214,-1.603 -5.214,-7.312 0,-5.688 1.49,-7.335 5.236,-7.335 3.724,0 5.191,1.647 5.191,7.335 C 5.213,-1.603 3.746,0 0,0 m 0,-16.092 c -4.875,0 -6.748,2.505 -6.748,8.78 0,6.274 1.851,8.734 6.748,8.734 4.92,0 6.748,-2.46 6.748,-8.734 0,-6.297 -1.828,-8.78 -6.748,-8.78" />
      </g>
      <g
         transform="translate(990.2718,721.332)"
         id="g700">
        <path
           inkscape:connector-curvature="0"
           id="path702"
           style="fill:#ffffff;fill-opacity:1;fill-rule:nonzero;stroke:none"
           d="M 0,0 H -3.904 V -7.471 H 0 c 2.641,0 3.995,0.903 3.995,3.77 C 3.995,-0.993 2.708,0 0,0 m 0,-8.758 h -3.904 v -6.838 H -5.395 V 1.331 H 0 c 3.837,0 5.507,-1.489 5.507,-5.032 0,-3.408 -1.625,-5.057 -5.507,-5.057" />
      </g>
      <g
         transform="translate(1002.3626,719.8193)"
         id="g704">
        <path
           inkscape:connector-curvature="0"
           id="path706"
           style="fill:#ffffff;fill-opacity:1;fill-rule:nonzero;stroke:none"
           d="M 0,0 -3.002,-8.282 H 4.175 L 1.219,0 0.654,1.738 H 0.587 Z M 4.649,-9.614 H -3.498 L -5.1,-14.083 H -6.703 L -0.271,2.844 H 1.49 l 6.432,-16.927 h -1.67 z" />
      </g>
      <g
         transform="translate(1018.2767,721.332)"
         id="g708">
        <path
           inkscape:connector-curvature="0"
           id="path710"
           style="fill:#ffffff;fill-opacity:1;fill-rule:nonzero;stroke:none"
           d="m 0,0 h -3.995 v -6.771 h 3.859 c 2.461,0 3.567,0.993 3.567,3.454 C 3.431,-0.948 2.37,0 0,0 m 1.354,-7.719 4.717,-7.877 H 4.266 l -4.333,7.607 h -3.928 v -7.607 H -5.484 V 1.331 H 0 c 3.407,0 4.965,-1.489 4.965,-4.581 0,-2.754 -1.264,-4.198 -3.611,-4.469" />
      </g>
      <g
         transform="translate(1031.7328,721.2187)"
         id="g712">
        <path
           inkscape:connector-curvature="0"
           id="path714"
           style="fill:#ffffff;fill-opacity:1;fill-rule:nonzero;stroke:none"
           d="M 0,0 V -15.482 H -1.489 V 0 h -5.304 l 0.045,1.444 H 5.304 L 5.326,0 Z" />
      </g>
      <path
         inkscape:connector-curvature="0"
         id="path716"
         style="fill:#ffffff;fill-opacity:1;fill-rule:nonzero;stroke:none"
         d="m 1039.642,722.663 h 1.489 v -16.927 h -1.489 z" />
      <g
         transform="translate(1055.306,720.7451)"
         id="g718">
        <path
           inkscape:connector-curvature="0"
           id="path720"
           style="fill:#ffffff;fill-opacity:1;fill-rule:nonzero;stroke:none"
           d="m 0,0 c -0.926,0.429 -2.279,0.768 -3.679,0.768 -3.86,0 -5.665,-1.761 -5.665,-7.133 0,-5.732 1.828,-7.538 5.733,-7.538 1.422,0 2.64,0.339 3.656,0.881 l 0.248,-1.287 c -1.016,-0.542 -2.572,-1.015 -4.085,-1.015 -4.92,0 -7.087,2.73 -7.087,8.959 0,5.936 2.213,8.553 7.132,8.553 1.423,0 3.069,-0.383 3.95,-0.811 z" />
      </g>
      <path
         inkscape:connector-curvature="0"
         id="path722"
         style="fill:#ffffff;fill-opacity:1;fill-rule:nonzero;stroke:none"
         d="m 1058.489,722.663 h 1.489 v -16.927 h -1.489 z" />
      <g
         transform="translate(1069.3549,721.332)"
         id="g724">
        <path
           inkscape:connector-curvature="0"
           id="path726"
           style="fill:#ffffff;fill-opacity:1;fill-rule:nonzero;stroke:none"
           d="M 0,0 H -3.904 V -7.471 H 0 c 2.642,0 3.995,0.903 3.995,3.77 C 3.995,-0.993 2.708,0 0,0 m 0,-8.758 h -3.904 v -6.838 h -1.49 V 1.331 H 0 c 3.837,0 5.507,-1.489 5.507,-5.032 0,-3.408 -1.625,-5.057 -5.507,-5.057" />
      </g>
      <g
         transform="translate(1081.3832,719.8193)"
         id="g728">
        <path
           inkscape:connector-curvature="0"
           id="path730"
           style="fill:#ffffff;fill-opacity:1;fill-rule:nonzero;stroke:none"
           d="M 0,0 -3.002,-8.282 H 4.175 L 1.219,0 0.654,1.738 H 0.586 Z m 4.648,-9.614 h -8.146 l -1.604,-4.469 h -1.601 l 6.432,16.927 h 1.76 l 6.433,-16.927 h -1.67 z" />
      </g>
      <g
         transform="translate(1094.848,721.2187)"
         id="g732">
        <path
           inkscape:connector-curvature="0"
           id="path734"
           style="fill:#ffffff;fill-opacity:1;fill-rule:nonzero;stroke:none"
           d="M 0,0 V -15.482 H -1.489 V 0 h -5.304 l 0.045,1.444 H 5.304 L 5.326,0 Z" />
      </g>
      <path
         inkscape:connector-curvature="0"
         id="path736"
         style="fill:#ffffff;fill-opacity:1;fill-rule:nonzero;stroke:none"
         d="m 1102.757,722.663 h 1.489 v -16.927 h -1.489 z" />
      <g
         transform="translate(1120.9877,722.6631)"
         id="g738">
        <path
           inkscape:connector-curvature="0"
           id="path740"
           style="fill:#ffffff;fill-opacity:1;fill-rule:nonzero;stroke:none"
           d="M 0,0 -6.161,-16.927 H -7.899 L -14.061,0 h 1.648 l 4.829,-13.768 0.564,-1.737 h 0.069 l 0.564,1.716 L -1.558,0 Z" />
      </g>
      <g
         transform="translate(1128.9525,721.5127)"
         id="g742">
        <path
           inkscape:connector-curvature="0"
           id="path744"
           style="fill:#ffffff;fill-opacity:1;fill-rule:nonzero;stroke:none"
           d="m 0,0 c -3.724,0 -5.213,-1.603 -5.213,-7.313 0,-5.688 1.489,-7.334 5.235,-7.334 3.725,0 5.192,1.646 5.192,7.334 C 5.214,-1.603 3.747,0 0,0 m 0,-16.092 c -4.875,0 -6.748,2.505 -6.748,8.779 0,6.274 1.851,8.734 6.748,8.734 4.921,0 6.748,-2.46 6.748,-8.734 0,-6.297 -1.827,-8.779 -6.748,-8.779" />
      </g>
      <g
         transform="translate(988.2943,684.6357)"
         id="g746">
        <path
           inkscape:connector-curvature="0"
           id="path748"
           style="fill:#ffffff;fill-opacity:1;fill-rule:nonzero;stroke:none"
           d="m 0,0 c -1.68,0 -3.302,0.386 -4.614,1.062 l 0.502,3.34 c 1.313,-0.657 2.665,-1.043 4.074,-1.043 1.293,0 1.795,0.386 1.795,1.101 0,1.776 -6.352,1.022 -6.352,5.907 0,2.549 1.641,4.635 5.522,4.635 1.448,0 3.031,-0.271 4.209,-0.734 L 4.673,11.005 c -1.255,0.366 -2.491,0.559 -3.515,0.559 -1.563,0 -1.872,-0.424 -1.872,-0.984 0,-1.796 6.333,-0.984 6.333,-5.869 C 5.619,1.814 3.495,0 0,0" />
      </g>
      <g
         transform="translate(1000.8734,689.791)"
         id="g750">
        <path
           inkscape:connector-curvature="0"
           id="path752"
           style="fill:#ffffff;fill-opacity:1;fill-rule:nonzero;stroke:none"
           d="m 0,0 c -0.271,0.077 -0.695,0.173 -1.274,0.173 -0.985,0 -1.449,-0.405 -1.449,-1.255 0,-0.849 0.483,-1.196 1.236,-1.196 0.792,0 1.487,0.443 1.487,1.081 z m 0.561,-3.92 c -0.773,-0.733 -1.816,-1.158 -3.071,-1.158 -2.298,0 -3.688,1.312 -3.688,3.958 0,2.162 1.564,3.726 4.21,3.726 0.791,0 1.428,-0.097 1.988,-0.251 L 0,2.78 c 0,0.868 -0.502,1.352 -1.95,1.352 -1.332,0 -2.105,-0.194 -3.225,-0.599 l -0.289,2.819 c 1.216,0.521 2.625,0.772 4.209,0.772 3.727,0 4.943,-1.603 4.943,-4.865 V -4.885 H 0.83 Z" />
      </g>
      <g
         transform="translate(1012.7698,684.9062)"
         id="g754">
        <path
           inkscape:connector-curvature="0"
           id="path756"
           style="fill:#ffffff;fill-opacity:1;fill-rule:nonzero;stroke:none"
           d="m 0,0 v 7.375 c 0,1.081 -0.482,1.506 -1.429,1.506 -0.617,0 -1.216,-0.251 -1.544,-0.676 V 0 H -6.68 v 11.738 l 2.664,0.155 0.521,-0.926 c 0.87,0.694 1.97,1.061 3.128,1.061 2.491,0 4.094,-1.66 4.094,-4.653 L 3.727,0 Z" />
      </g>
      <g
         transform="translate(1027.2113,699.3867)"
         id="g758">
        <path
           inkscape:connector-curvature="0"
           id="path760"
           style="fill:#ffffff;fill-opacity:1;fill-rule:nonzero;stroke:none"
           d="m 0,0 2.878,-7.395 0.54,-1.467 H 3.476 L 3.997,-7.414 6.913,0 h 4.401 V -14.48 H 7.627 v 6.1 L 7.665,-6.815 7.607,-6.797 7.066,-8.283 4.692,-14.48 H 2.048 l -2.376,6.235 -0.521,1.487 -0.039,-0.019 0.02,-1.564 V -14.48 H -4.421 V 0 Z" />
      </g>
      <g
         transform="translate(1046.015,689.791)"
         id="g762">
        <path
           inkscape:connector-curvature="0"
           id="path764"
           style="fill:#ffffff;fill-opacity:1;fill-rule:nonzero;stroke:none"
           d="m 0,0 c -0.271,0.077 -0.695,0.173 -1.274,0.173 -0.985,0 -1.449,-0.405 -1.449,-1.255 0,-0.849 0.483,-1.196 1.236,-1.196 0.792,0 1.487,0.443 1.487,1.081 z m 0.56,-3.92 c -0.773,-0.733 -1.816,-1.158 -3.07,-1.158 -2.298,0 -3.688,1.312 -3.688,3.958 0,2.162 1.564,3.726 4.209,3.726 0.792,0 1.429,-0.097 1.989,-0.251 L 0,2.78 c 0,0.868 -0.502,1.352 -1.95,1.352 -1.332,0 -2.105,-0.194 -3.225,-0.599 l -0.289,2.819 c 1.216,0.521 2.625,0.772 4.208,0.772 3.727,0 4.944,-1.603 4.944,-4.865 V -4.885 H 0.83 Z" />
      </g>
      <g
         transform="translate(1051.2318,684.9062)"
         id="g766">
        <path
           inkscape:connector-curvature="0"
           id="path768"
           style="fill:#ffffff;fill-opacity:1;fill-rule:nonzero;stroke:none"
           d="m 0,0 v 11.719 l 2.954,0.135 0.328,-1.699 H 3.34 c 0.733,1.275 1.815,1.854 3.031,1.854 0.561,0 1.024,-0.077 1.333,-0.194 L 7.491,8.302 C 7.105,8.418 6.622,8.495 6.121,8.495 4.691,8.495 3.727,7.567 3.727,5.889 V 0 Z" />
      </g>
      <g
         transform="translate(1064.3148,694.0381)"
         id="g770">
        <path
           inkscape:connector-curvature="0"
           id="path772"
           style="fill:#ffffff;fill-opacity:1;fill-rule:nonzero;stroke:none"
           d="m 0,0 v -5.425 c 0,-0.753 0.366,-1.082 1.216,-1.082 0.29,0 0.695,0.058 0.908,0.136 l 0.192,-2.588 c -0.424,-0.212 -1.312,-0.366 -2.24,-0.366 -2.587,0 -3.803,1.486 -3.803,3.804 V 0 h -1.12 v 2.684 h 1.314 L -2.935,5.194 0,5.444 V 2.684 H 2.451 V 0 Z" />
      </g>
      <g
         transform="translate(1073.2631,700.332)"
         id="g774">
        <path
           inkscape:connector-curvature="0"
           id="path776"
           style="fill:#ffffff;fill-opacity:1;fill-rule:nonzero;stroke:none"
           d="m 0,0 -2.395,-2.818 h -2.76 L -4.189,0 Z m -5.349,-15.426 v 11.699 l 3.804,0.174 v -11.873 z" />
      </g>
      <g
         transform="translate(1080.1439,684.9062)"
         id="g778">
        <path
           inkscape:connector-curvature="0"
           id="path780"
           style="fill:#ffffff;fill-opacity:1;fill-rule:nonzero;stroke:none"
           d="m 0,0 v 7.375 c 0,1.081 -0.482,1.506 -1.429,1.506 -0.617,0 -1.216,-0.251 -1.544,-0.676 V 0 H -6.68 v 11.738 l 2.664,0.155 0.521,-0.926 c 0.87,0.694 1.97,1.061 3.128,1.061 2.491,0 4.094,-1.66 4.094,-4.653 L 3.727,0 Z" />
      </g>
      <path
         inkscape:connector-curvature="0"
         id="path782"
         style="fill:#011e59;fill-opacity:1;fill-rule:nonzero;stroke:none"
         d="M 968.793,669.392 H 783.402 v 92.231 h 185.391 z" />
      <g
         transform="translate(813.9964,736.2197)"
         id="g784">
        <path
           inkscape:connector-curvature="0"
           id="path786"
           style="fill:#00b0ff;fill-opacity:1;fill-rule:nonzero;stroke:none"
           d="M 0,0 H -10.571 V -19.901 H 0 c 6.957,0 10.57,2.535 10.57,10.086 C 10.57,-2.696 7.064,0 0,0 m 0,-21.411 h -10.571 v -17.528 h -1.781 V 1.51 H 0 c 8.521,0 12.351,-3.236 12.351,-11.325 0,-7.983 -3.722,-11.596 -12.351,-11.596" />
      </g>
      <g
         transform="translate(845.8157,736.2197)"
         id="g788">
        <path
           inkscape:connector-curvature="0"
           id="path790"
           style="fill:#00b0ff;fill-opacity:1;fill-rule:nonzero;stroke:none"
           d="M 0,0 H -10.571 V -19.901 H 0 c 6.957,0 10.57,2.535 10.57,10.086 C 10.57,-2.696 7.065,0 0,0 m 0,-21.411 h -10.571 v -17.528 h -1.78 V 1.51 H 0 c 8.521,0 12.351,-3.236 12.351,-11.325 0,-7.983 -3.722,-11.596 -12.351,-11.596" />
      </g>
      <path
         inkscape:connector-curvature="0"
         id="path792"
         style="fill:#00b0ff;fill-opacity:1;fill-rule:nonzero;stroke:none"
         d="m 865.824,741.451 h 1.349 v -53.718 h -1.349 z" />
      <g
         transform="translate(887.639,696.5244)"
         id="g794">
        <path
           inkscape:connector-curvature="0"
           id="path796"
           style="fill:#00b0ff;fill-opacity:1;fill-rule:nonzero;stroke:none"
           d="m 0,0 c -4.691,0 -9.223,1.079 -12.89,2.967 l 1.402,9.33 c 3.668,-1.833 7.443,-2.912 11.381,-2.912 3.613,0 5.015,1.079 5.015,3.074 0,4.962 -17.744,2.858 -17.744,16.504 0,7.119 4.584,12.944 15.425,12.944 4.045,0 8.468,-0.756 11.758,-2.05 l -1.295,-9.114 c -3.505,1.025 -6.957,1.564 -9.816,1.564 -4.369,0 -5.232,-1.187 -5.232,-2.751 0,-5.016 17.69,-2.75 17.69,-16.396 C 15.694,5.07 9.763,0 0,0" />
      </g>
      <g
         transform="translate(918.9456,737.7295)"
         id="g798">
        <path
           inkscape:connector-curvature="0"
           id="path800"
           style="fill:#00b0ff;fill-opacity:1;fill-rule:nonzero;stroke:none"
           d="m 0,0 8.037,-20.656 1.51,-4.099 H 9.709 L 11.164,-20.71 19.309,0 H 31.605 V -40.449 H 21.304 v 17.043 l 0.108,4.368 -0.162,0.054 -1.51,-4.153 -6.634,-17.312 H 5.718 l -6.635,17.42 -1.456,4.153 -0.107,-0.055 0.053,-4.368 v -17.15 h -9.924 V 0 Z" />
      </g>
    </g>
  </g>
</svg>
