<?xml version="1.0" encoding="UTF-8" standalone="no"?>
<!-- Created with Inkscape (http://www.inkscape.org/) -->

<svg
   xmlns:dc="http://purl.org/dc/elements/1.1/"
   xmlns:cc="http://creativecommons.org/ns#"
   xmlns:rdf="http://www.w3.org/1999/02/22-rdf-syntax-ns#"
   xmlns:svg="http://www.w3.org/2000/svg"
   xmlns="http://www.w3.org/2000/svg"
   xmlns:sodipodi="http://sodipodi.sourceforge.net/DTD/sodipodi-0.dtd"
   xmlns:inkscape="http://www.inkscape.org/namespaces/inkscape"
   width="180.03409mm"
   height="79.656593mm"
   viewBox="0 0 180.03409 79.656593"
   version="1.1"
   id="svg1765"
   inkscape:version="0.92.3 (2405546, 2018-03-11)"
   sodipodi:docname="sm-logo-full-white.svg">
  <defs
     id="defs1759" />
  <sodipodi:namedview
     id="base"
     pagecolor="#ffffff"
     bordercolor="#666666"
     borderopacity="1.0"
     inkscape:pageopacity="0.0"
     inkscape:pageshadow="2"
     inkscape:zoom="0.35"
     inkscape:cx="-111.20667"
     inkscape:cy="-204.33443"
     inkscape:document-units="mm"
     inkscape:current-layer="layer1"
     showgrid="false"
     fit-margin-top="0"
     fit-margin-left="0"
     fit-margin-right="0"
     fit-margin-bottom="0"
     inkscape:window-width="1366"
     inkscape:window-height="740"
     inkscape:window-x="1920"
     inkscape:window-y="452"
     inkscape:window-maximized="1" />
  <metadata
     id="metadata1762">
    <rdf:RDF>
      <cc:Work
         rdf:about="">
        <dc:format>image/svg+xml</dc:format>
        <dc:type
           rdf:resource="http://purl.org/dc/dcmitype/StillImage" />
        <dc:title></dc:title>
      </cc:Work>
    </rdf:RDF>
  </metadata>
  <g
     inkscape:label="Layer 1"
     inkscape:groupmode="layer"
     id="layer1"
     transform="translate(-3.3430744,-15.113251)">
    <path
       d="m 150.71444,33.033439 c -4.37503,-2.680652 -8.9476,-5.073638 -13.68142,-7.126806 -7.15367,-3.097922 -14.61558,-5.452977 -22.24501,-7.169481 -5.50037,-1.229686 -11.08613,-2.151158 -16.67503,-2.726487 -13.368514,-1.405132 -26.850786,-1.092179 -40.122839,0.464686 -6.652671,0.777644 -13.254714,1.884048 -19.826739,3.304983 -3.285989,0.690711 -6.572025,1.480998 -9.859627,2.36928 -1.659573,0.45046 -3.317622,0.930957 -4.989874,1.417771 -1.710155,0.526331 -3.237019,0.994184 -5.280693,1.737052 l 14.860567,33.211011 c 0.776044,-0.499462 2.127457,-1.194914 3.287603,-1.768665 1.218615,-0.629066 2.478314,-1.247069 3.734878,-1.830301 2.530511,-1.179112 5.138441,-2.313962 7.779572,-3.35872 5.268059,-2.168546 10.698935,-4.060493 16.172462,-5.716933 10.967578,-3.287594 22.274991,-5.525685 33.664618,-6.30491 7.828582,-0.542137 15.720402,-0.371422 23.492082,0.657521 3.51677,0.459946 7.00985,1.07479 10.45865,1.926719 2.09425,0.483655 4.15531,1.07953 6.20217,1.721244 8.90809,2.789713 17.43373,6.900784 25.28758,12.355343 l 6.87549,-8.174727 c -5.70113,-5.660033 -12.15936,-10.71945 -19.13444,-14.98858"
       style="fill:#ffffff;fill-opacity:1;fill-rule:nonzero;stroke:none;stroke-width:1.58057332"
       id="path886"
       inkscape:connector-curvature="0" />
    <path
       d="m 11.441917,94.769848 c -2.9461979,0 -5.8133629,-0.695448 -8.0988426,-1.869815 l 0.8692809,-5.854445 c 2.3013394,1.152239 4.6864173,1.828724 7.1473477,1.828724 2.274458,0 3.159599,-0.676485 3.159599,-1.9283 0,-3.11057 -11.1635926,-1.792371 -11.1635926,-10.341692 0,-4.468283 2.9019322,-8.149436 9.7126256,-8.149436 2.539965,0 5.299646,0.464685 7.387585,1.289745 l -0.831375,5.721677 c -2.189108,-0.635391 -4.349719,-0.976795 -6.154769,-0.976795 -2.753364,0 -3.284421,0.733387 -3.284421,1.716504 0,3.135857 11.097193,1.727567 11.097193,10.302175 0,5.072061 -3.722243,8.261658 -9.840631,8.261658"
       style="fill:#ffffff;fill-opacity:1;fill-rule:nonzero;stroke:none;stroke-width:1.58057332"
       id="path890"
       inkscape:connector-curvature="0" />
    <path
       d="m 33.844643,85.734028 c -0.458342,-0.145432 -1.20598,-0.320839 -2.222261,-0.320839 -1.73547,0 -2.551076,0.706518 -2.551076,2.225447 0,1.48732 0.845624,2.081614 2.181222,2.081614 1.386135,0 2.592115,-0.769736 2.592115,-1.890365 z m 0.983127,6.86285 c -1.335597,1.286585 -3.170621,2.046842 -5.375543,2.046842 -4.030448,0 -6.478743,-2.307635 -6.478743,-6.960845 0,-3.798117 2.756499,-6.513542 7.393902,-6.513542 1.384568,0 2.497312,0.169133 3.477257,0.422005 v -0.741285 c 0,-1.507867 -0.867712,-2.362959 -3.410857,-2.362959 -2.321861,0 -3.690657,0.319272 -5.671114,1.022631 l -0.493153,-4.918739 c 2.14484,-0.918313 4.605816,-1.356134 7.38763,-1.356134 6.519829,0 8.66467,2.810259 8.66467,8.517713 v 12.549752 h -5.008826 z"
       style="fill:#ffffff;fill-opacity:1;fill-rule:nonzero;stroke:none;stroke-width:1.58057332"
       id="path894"
       inkscape:connector-curvature="0" />
    <path
       d="M 55.220961,94.30216 V 81.358844 c 0,-1.906172 -0.85351,-2.630078 -2.514695,-2.630078 -1.077931,0 -2.127457,0.43464 -2.705917,1.174366 V 94.30216 h -6.50567 V 73.702543 l 4.68485,-0.273436 0.902479,1.624827 c 1.533182,-1.201235 3.464622,-1.849271 5.511477,-1.849271 4.360785,0 7.158416,2.916158 7.158416,8.154181 V 94.30216 Z"
       style="fill:#ffffff;fill-opacity:1;fill-rule:nonzero;stroke:none;stroke-width:1.58057332"
       id="path898"
       inkscape:connector-curvature="0" />
    <path
       d="m 81.231053,68.906607 5.042024,12.963868 0.951495,2.56685 h 0.09498 l 0.918295,-2.53366 5.106861,-12.997058 h 7.730562 v 25.39508 H 94.601273 V 83.591719 l 0.06186,-2.740716 -0.09498,-0.03495 -0.949934,2.612689 -4.156926,10.872761 h -4.653218 l -4.156883,-10.950209 -0.916728,-2.592142 -0.06497,0.02688 0.03136,2.723327 v 10.792162 h -6.23223 V 68.906437 Z"
       style="fill:#ffffff;fill-opacity:1;fill-rule:nonzero;stroke:none;stroke-width:1.58057332"
       id="path902"
       inkscape:connector-curvature="0" />
    <path
       d="m 114.81346,85.734028 c -0.46785,-0.145432 -1.22337,-0.320839 -2.23651,-0.320839 -1.72441,0 -2.53208,0.706518 -2.53208,2.225447 0,1.48732 0.8535,2.081614 2.16066,2.081614 1.38456,0 2.60793,-0.769736 2.60793,-1.890365 z m 0.97998,6.86285 c -1.33559,1.286585 -3.16905,2.046842 -5.37397,2.046842 -4.03677,0 -6.48036,-2.307635 -6.48036,-6.960845 0,-3.798117 2.74074,-6.513542 7.39395,-6.513542 1.38775,0 2.49732,0.169133 3.4804,0.422005 v -0.741285 c 0,-1.507867 -0.87722,-2.362959 -3.41404,-2.362959 -2.33607,0 -3.70643,0.319272 -5.65212,1.022631 l -0.51685,-4.918743 c 2.14327,-0.918313 4.60581,-1.356135 7.39394,-1.356135 6.52302,0 8.6631,2.81026 8.6631,8.517713 v 12.549748 h -5.01514 z"
       style="fill:#ffffff;fill-opacity:1;fill-rule:nonzero;stroke:none;stroke-width:1.58057332"
       id="path906"
       inkscape:connector-curvature="0" />
    <path
       d="M 124.4621,94.30216 V 73.735739 l 5.18584,-0.237101 0.57851,2.992024 h 0.0995 c 1.28657,-2.233351 3.18956,-3.255981 5.33127,-3.255981 0.95625,0 1.77024,0.137502 2.31711,0.32402 l -0.37142,6.184787 c -0.67649,-0.232352 -1.52838,-0.355652 -2.39771,-0.355652 -2.51156,0 -4.20433,1.643797 -4.20433,4.574181 v 10.340115 z"
       style="fill:#ffffff;fill-opacity:1;fill-rule:nonzero;stroke:none;stroke-width:1.58057332"
       id="path910"
       inkscape:connector-curvature="0" />
    <path
       d="m 147.63205,78.263448 v 9.549824 c 0,1.311878 0.63222,1.871399 2.13376,1.871399 0.49944,0 1.22337,-0.08535 1.57741,-0.232352 l 0.35261,4.545723 c -0.75392,0.368288 -2.29973,0.644882 -3.92772,0.644882 -4.54098,0 -6.68583,-2.609529 -6.68583,-6.695313 V 78.26344 h -1.94886 V 73.558069 H 141.43 l 1.05585,-4.387671 5.14633,-0.445706 v 4.833391 h 4.29281 v 4.70537 z"
       style="fill:#ffffff;fill-opacity:1;fill-rule:nonzero;stroke:none;stroke-width:1.58057332"
       id="path914"
       inkscape:connector-curvature="0" />
    <path
       d="m 163.98735,67.247322 -4.20276,4.942457 h -4.85076 l 1.70227,-4.942457 z m -9.37283,27.05468 V 73.782998 l 6.64949,-0.305069 v 20.824064 z"
       style="fill:#ffffff;fill-opacity:1;fill-rule:nonzero;stroke:none;stroke-width:1.58057332"
       id="path918"
       inkscape:connector-curvature="0" />
    <path
       d="M 176.85572,94.30216 V 81.358844 c 0,-1.906172 -0.8535,-2.630078 -2.51308,-2.630078 -1.07955,0 -2.12589,0.43464 -2.70278,1.174366 V 94.30216 h -6.51042 V 73.702543 l 4.6896,-0.273436 0.88196,1.624827 c 1.54734,-1.201235 3.48196,-1.849271 5.51144,-1.849271 4.36396,0 7.16472,2.916158 7.16472,8.154181 V 94.30216 Z"
       style="fill:#ffffff;fill-opacity:1;fill-rule:nonzero;stroke:none;stroke-width:1.58057332"
       id="path922"
       inkscape:connector-curvature="0" />
  </g>
</svg>
